<?xml version="1.0" standalone="no"?><!DOCTYPE svg PUBLIC "-//W3C//DTD SVG 1.1//EN" "http://www.w3.org/Graphics/SVG/1.1/DTD/svg11.dtd"><svg t="1654244940569" class="icon" viewBox="0 0 1024 1024" version="1.1" xmlns="http://www.w3.org/2000/svg" p-id="5574" xmlns:xlink="http://www.w3.org/1999/xlink" width="200" height="200"><defs><style type="text/css">@font-face { font-family: feedback-iconfont; src: url("//at.alicdn.com/t/font_1031158_u69w8yhxdu.woff2?t=1630033759944") format("woff2"), url("//at.alicdn.com/t/font_1031158_u69w8yhxdu.woff?t=1630033759944") format("woff"), url("//at.alicdn.com/t/font_1031158_u69w8yhxdu.ttf?t=1630033759944") format("truetype"); }
</style></defs><path d="M945.18 470.83L542.38 75.65a44.32 44.32 0 0 0-62.5 0L285.31 266.54c-5.71 5.6-14.4 0.85-14.4-7.86v-158.5c0-15-10.38-27.13-23.19-27.13H199.1c-12.81 0-23.19 12.15-23.19 27.13v268.91a11 11 0 0 1-3.13 7.86l-95.7 93.88A47.45 47.45 0 0 0 65.13 519c6.15 19.77 23.11 32.55 43.2 32.55h11.59a8 8 0 0 0 5.63-2.4L505.5 176.43a7.82 7.82 0 0 1 11.27 0l379.94 372.75a8 8 0 0 0 5.64 2.4h11.59c20.09 0 37-12.78 43.2-32.55a47.45 47.45 0 0 0-11.96-48.2z" p-id="5575"></path><path d="M539.76 235c-7.82-7.67-28.12-28.85-28.12-28.85L482.18 235 195.26 516.52a57.71 57.71 0 0 0-17.3 41.2v344.11a57.74 57.74 0 0 0 57.76 57.73h148a16.66 16.66 0 0 0 16.66-16.65V663.3A16.66 16.66 0 0 1 417 646.65h187.91a16.66 16.66 0 0 1 16.66 16.65v279.61a16.66 16.66 0 0 0 16.66 16.65h148A57.74 57.74 0 0 0 844 901.83v-351.1a41.06 41.06 0 0 0-12.31-29.31z" p-id="5576"></path></svg>