<?xml version="1.0" standalone="no"?><!DOCTYPE svg PUBLIC "-//W3C//DTD SVG 1.1//EN" "http://www.w3.org/Graphics/SVG/1.1/DTD/svg11.dtd"><svg t="1654244572328" class="icon" viewBox="0 0 1280 1024" version="1.1" xmlns="http://www.w3.org/2000/svg" p-id="3585" xmlns:xlink="http://www.w3.org/1999/xlink" width="250" height="200"><defs><style type="text/css">@font-face { font-family: feedback-iconfont; src: url("//at.alicdn.com/t/font_1031158_u69w8yhxdu.woff2?t=1630033759944") format("woff2"), url("//at.alicdn.com/t/font_1031158_u69w8yhxdu.woff?t=1630033759944") format("woff"), url("//at.alicdn.com/t/font_1031158_u69w8yhxdu.ttf?t=1630033759944") format("truetype"); }
</style></defs><path d="M1194.666667 0H85.333333C38.4 0 0 41.813333 0 93.013333v836.608c0 51.114667 38.4 92.928 85.333333 92.928h1109.333334c46.933333 0 85.333333-41.813333 85.333333-93.013333V93.013333C1280 41.813333 1241.6 0 1194.666667 0z m-192.682667 233.472c35.328 0 64 31.232 64 69.717333 0 38.570667-28.672 69.802667-64 69.802667s-64-31.232-64-69.802667c0-38.4 28.672-69.717333 64-69.717333z m60.586667 602.282667H217.770667c-40.533333 0-62.805333-51.285333-37.034667-85.333334l233.130667-308.906666a46.506667 46.506667 0 0 1 37.034666-19.029334c14.336 0 27.904 6.997333 37.034667 19.114667L695.466667 716.629333a46.506667 46.506667 0 0 0 37.034666 19.029334 46.506667 46.506667 0 0 0 37.034667-19.029334l115.285333-152.746666a46.506667 46.506667 0 0 1 37.034667-19.029334c14.336 0 27.904 6.997333 37.034667 19.029334l140.8 186.538666c25.685333 34.048 3.413333 85.333333-37.034667 85.333334z" p-id="3586" fill="#1296db"></path></svg>